<?xml version="1.0" standalone="no"?>
<!DOCTYPE svg PUBLIC "-//W3C//DTD SVG 20010904//EN"
 "http://www.w3.org/TR/2001/REC-SVG-20010904/DTD/svg10.dtd">
<svg version="1.0" xmlns="http://www.w3.org/2000/svg"
 width="516.000000pt" height="411.000000pt" viewBox="0 0 516.000000 411.000000"
 preserveAspectRatio="xMidYMid meet">

<g transform="translate(0.000000,411.000000) scale(0.100000,-0.100000)"
fill="#000000" stroke="none">
<path d="M2875 4075 c-214 -12 -712 -41 -1105 -64 -393 -23 -734 -44 -757 -47
-41 -5 -42 -6 -45 -47 l-3 -42 -90 -3 c-49 -2 -263 -8 -474 -15 -291 -9 -385
-15 -389 -25 -3 -9 27 -11 140 -6 265 11 963 31 967 27 3 -2 -8 -16 -22 -31
l-27 -28 0 -1527 0 -1527 25 -16 c14 -9 24 -18 22 -21 -5 -4 -989 -103 -1032
-103 -29 0 -29 0 -10 19 18 17 79 25 485 65 255 25 469 51 474 56 7 7 -1 10
-23 10 -36 0 -839 -77 -883 -85 l-28 -4 0 1548 0 1548 193 6 c105 4 310 10
455 13 238 6 290 12 264 28 -5 3 -216 -1 -468 -8 -275 -8 -468 -10 -482 -5
-56 21 -52 146 -52 -1606 0 -1531 1 -1615 18 -1615 9 0 220 20 467 45 248 25
453 45 458 45 4 0 7 -22 7 -50 0 -38 4 -50 15 -50 11 0 15 12 15 50 0 55 -7
51 123 65 l57 6 0 48 0 48 72 -4 c121 -5 533 -23 693 -28 83 -3 169 -8 193
-11 l42 -5 0 -64 0 -63 117 -7 116 -8 60 -46 60 -46 -39 -3 c-22 -1 -345 15
-719 37 -374 22 -684 36 -688 31 -10 -9 48 -14 713 -50 294 -16 588 -32 653
-36 l117 -7 47 -41 c98 -86 203 -218 253 -319 l50 -98 20 33 c36 59 19 221
-36 347 -14 30 -23 56 -21 58 2 1 120 -4 263 -12 358 -21 363 -22 504 -35 170
-16 595 0 769 30 483 81 665 241 711 626 22 184 -10 380 -90 551 -56 120 -172
290 -272 398 -118 129 -256 255 -278 255 -4 0 -15 -18 -24 -40 -22 -55 -20
-145 4 -197 10 -24 85 -127 166 -229 203 -258 249 -324 305 -439 65 -134 84
-208 70 -261 -30 -112 -189 -234 -387 -299 -238 -78 -531 -89 -999 -37 l-150
17 -3 1623 c-2 1432 -4 1622 -17 1622 -13 0 -15 -188 -15 -1621 l0 -1621 -22
6 c-13 3 -33 6 -45 6 l-23 0 0 1595 0 1596 -97 -6 c-54 -4 -313 -17 -576 -30
-431 -21 -500 -27 -486 -38 3 -3 547 22 1022 47 l107 6 -2 -1578 -3 -1577 -35
3 c-100 9 -576 115 -593 131 -4 4 92 36 215 71 345 98 345 98 334 232 -7 79
-18 116 -40 130 -24 16 -95 5 -407 -62 -295 -63 -497 -100 -549 -100 -20 0
-20 5 -20 1321 l0 1322 -187 -8 c-104 -4 -338 -14 -520 -24 l-333 -16 0 37 0
38 -85 0 -85 0 0 29 c0 28 2 30 53 35 28 3 95 8 147 11 52 3 480 27 950 55
470 27 954 54 1075 60 l220 11 85 -31 c47 -17 187 -72 313 -121 l227 -91 0
-1540 c0 -1227 3 -1539 13 -1536 9 4 13 324 15 1546 2 1521 2 1541 -17 1552
-11 5 -147 61 -303 122 l-283 112 -115 2 c-63 1 -290 -8 -505 -21z m-697 -753
l2 -512 -265 0 -265 0 2 413 3 412 220 12 c121 6 228 12 238 12 9 1 17 4 17 9
0 4 -109 2 -242 -4 l-243 -12 -233 58 c-217 53 -252 64 -241 74 4 4 963 55
989 52 13 -1 15 -67 18 -514z m-1038 -1043 c0 -1378 -2 -1550 -15 -1539 -13
11 -15 194 -15 1539 0 1486 1 1551 27 1551 2 0 3 -698 3 -1551z m-1070 -79 c0
-1372 -2 -1559 -15 -1570 -13 -11 -15 164 -15 1563 0 1397 2 1576 15 1571 13
-5 15 -188 15 -1564z m1358 1484 l192 -47 0 -417 0 -416 -107 -17 c-60 -10
-120 -17 -134 -17 -34 0 -51 -21 -47 -57 l3 -28 420 -1 420 -2 0 -303 0 -304
-260 0 -260 1 -5 281 c-4 220 -8 281 -17 275 -10 -6 -13 -79 -15 -287 l-3
-278 -140 -47 -140 -47 0 -34 0 -34 143 -3 142 -3 0 -454 0 -454 -42 -11 c-62
-17 -370 -100 -390 -106 -17 -5 -18 68 -18 1432 l0 1437 33 -7 c17 -3 119 -27
225 -52z m750 -901 c3 -10 -69 -13 -339 -13 -188 0 -339 3 -335 7 8 8 332 20
525 19 106 -1 145 -4 149 -13z m-3 -58 c0 -20 -8 -20 -407 -23 -391 -2 -408
-1 -408 16 0 10 3 22 7 25 4 4 187 6 407 5 393 -3 401 -3 401 -23z m0 -705 l0
-35 -379 -3 c-209 -1 -376 1 -372 5 4 5 49 22 99 40 l92 32 280 -2 280 -2 0
-35z m5 -80 c0 -20 -7 -20 -410 -20 -403 0 -410 0 -410 20 0 20 7 20 410 20
403 0 410 0 410 -20z m-2 -392 l2 -346 -30 -6 c-16 -3 -43 -9 -60 -12 l-30 -6
0 -94 0 -94 -68 0 c-38 0 -130 3 -205 7 l-137 6 0 442 c0 243 3 445 7 448 4 4
122 6 262 5 l256 -3 3 -347z m-284 -575 c107 -4 169 -10 171 -17 2 -6 9 -30
15 -53 6 -23 26 -64 45 -92 l34 -51 -42 0 c-23 0 -233 9 -467 20 -234 11 -438
20 -453 20 -25 0 -28 3 -25 27 3 26 9 29 228 89 244 67 246 67 494 57z m449
-340 l29 -23 -29 0 c-15 0 -52 3 -80 6 l-53 7 0 54 0 55 53 -38 c28 -21 65
-48 80 -61z m524 -69 c-3 -3 -12 -4 -19 -1 -8 3 -5 6 6 6 11 1 17 -2 13 -5z
m313 -60 c85 -16 147 -30 138 -32 -25 -5 -311 49 -323 60 -7 7 -3 8 10 5 11
-3 90 -18 175 -33z m-164 -8 c93 -19 180 -37 194 -40 32 -6 -238 3 -306 10
-42 5 -54 11 -63 30 -13 30 -14 34 -2 34 4 0 84 -15 177 -34z"/>
<path d="M2700 3755 c-280 -12 -309 -17 -330 -55 -13 -24 -13 -106 0 -130 19
-35 55 -37 365 -24 165 7 310 13 323 14 13 0 34 11 47 25 21 20 25 34 25 84 0
52 -3 62 -26 80 -30 24 -3 23 -404 6z m382 -22 c13 -12 18 -30 18 -68 0 -88 2
-87 -226 -96 -109 -4 -254 -11 -321 -14 -114 -7 -122 -6 -142 14 -29 29 -30
112 -1 141 17 17 34 20 103 21 45 1 147 5 227 9 271 13 322 12 342 -7z"/>
<path d="M2302 2173 l3 -148 128 0 c163 0 173 19 12 23 l-115 3 0 134 c0 114
-2 135 -15 135 -13 0 -15 -21 -13 -147z"/>
<path d="M2356 2311 c-5 -7 4 -11 27 -11 19 0 62 -3 96 -6 l61 -7 0 -93 c0
-77 3 -94 15 -94 12 0 15 18 15 105 l0 105 -44 0 c-23 0 -70 3 -103 6 -40 4
-63 3 -67 -5z"/>
</g>
</svg>
