<?xml version="1.0" standalone="no"?>
<!DOCTYPE svg PUBLIC "-//W3C//DTD SVG 20010904//EN"
 "http://www.w3.org/TR/2001/REC-SVG-20010904/DTD/svg10.dtd">
<svg version="1.0" xmlns="http://www.w3.org/2000/svg"
 width="440.000000pt" height="450.000000pt" viewBox="0 0 440.000000 450.000000"
 preserveAspectRatio="xMidYMid meet">

<g transform="translate(0.000000,450.000000) scale(0.100000,-0.100000)"
fill="#000000" stroke="none">
<path d="M2875 4465 c-214 -12 -712 -41 -1105 -64 -393 -23 -734 -44 -757 -47
-41 -5 -42 -6 -45 -47 l-3 -42 -90 -3 c-49 -2 -263 -8 -474 -15 -291 -9 -385
-15 -389 -25 -3 -9 27 -11 140 -6 265 11 963 31 967 27 3 -2 -8 -16 -22 -31
l-27 -28 0 -1527 0 -1527 25 -16 c14 -9 24 -18 22 -21 -5 -4 -989 -103 -1032
-103 -29 0 -29 0 -10 19 18 17 79 25 485 65 255 25 469 51 474 56 7 7 -1 10
-23 10 -36 0 -839 -77 -883 -85 l-28 -4 0 1548 0 1548 193 6 c105 4 310 10
455 13 238 6 290 12 264 28 -5 3 -216 -1 -468 -8 -275 -8 -468 -10 -482 -5
-56 21 -52 146 -52 -1606 0 -1531 1 -1615 18 -1615 9 0 220 20 467 45 248 25
453 45 458 45 4 0 7 -22 7 -50 0 -38 4 -50 15 -50 11 0 15 12 15 50 0 55 -7
51 123 65 l57 6 0 51 c0 47 1 50 22 44 13 -3 44 -6 70 -6 l46 0 7 -67 c4 -38
11 -86 15 -108 5 -22 8 -40 7 -41 -1 0 -58 2 -127 7 -69 4 -129 4 -133 0 -9
-9 113 -21 205 -21 47 0 60 -3 64 -17 77 -249 221 -375 511 -449 195 -49 373
-67 688 -68 328 -1 409 8 823 90 123 24 229 44 237 44 10 0 -1 -31 -35 -103
-78 -162 -100 -324 -55 -394 l19 -28 39 85 c42 91 113 186 217 290 67 67 273
231 396 316 119 82 149 118 179 215 21 72 32 253 16 264 -12 6 -237 45 -268
45 -10 0 -13 309 -13 1510 0 1487 0 1509 -20 1520 -10 5 -146 61 -302 122
l-283 112 -115 2 c-63 1 -290 -8 -505 -21z m657 -26 c46 -16 185 -71 311 -120
l227 -91 0 -1499 c0 -1212 -2 -1499 -13 -1499 -12 0 -422 83 -544 110 l-53 12
0 1529 c0 1352 -2 1529 -15 1529 -13 0 -15 -176 -15 -1525 0 -839 -3 -1525 -7
-1525 -5 0 -25 5 -45 11 l-38 10 0 1495 0 1495 -97 -6 c-54 -4 -313 -17 -576
-30 -431 -21 -500 -27 -486 -38 3 -3 547 22 1022 47 l107 6 0 -1481 c0 -1400
-1 -1480 -17 -1485 -57 -17 -69 -41 -78 -150 -7 -75 -6 -82 16 -108 16 -18 52
-36 109 -55 l85 -28 0 -94 0 -94 -55 -12 c-30 -7 -84 -10 -120 -7 -36 2 -429
25 -875 50 l-810 45 -43 42 c-53 51 -82 105 -82 151 0 33 2 35 28 31 15 -2
160 -9 322 -15 162 -6 314 -13 338 -16 l42 -5 0 -63 0 -63 93 -6 c223 -15
1058 -49 1064 -43 4 3 4 8 2 10 -4 4 -209 14 -739 36 -129 6 -268 13 -307 16
l-73 6 0 1615 0 1616 -187 -8 c-104 -4 -338 -14 -520 -24 l-333 -16 0 37 0 38
-85 0 -85 0 0 29 c0 28 2 30 53 35 28 3 93 8 143 10 50 3 480 28 955 56 1422
82 1276 78 1381 39z m-1354 -727 l2 -512 -265 0 -265 0 2 413 3 412 220 12
c121 6 228 12 238 12 9 1 17 4 17 9 0 4 -109 2 -242 -4 l-243 -12 -233 58
c-217 53 -252 64 -241 74 4 4 963 55 989 52 13 -1 15 -67 18 -514z m-1038
-1043 c0 -1378 -2 -1550 -15 -1539 -13 11 -15 194 -15 1539 0 1486 1 1551 27
1551 2 0 3 -698 3 -1551z m-1070 -79 c0 -1372 -2 -1559 -15 -1570 -13 -11 -15
164 -15 1563 0 1397 2 1576 15 1571 13 -5 15 -188 15 -1564z m1358 1484 l192
-47 0 -417 0 -416 -107 -17 c-60 -10 -120 -17 -134 -17 -34 0 -51 -21 -47 -57
l3 -28 420 -1 420 -2 0 -303 0 -304 -260 0 -260 1 -5 281 c-4 220 -8 281 -17
275 -10 -6 -13 -79 -15 -287 l-3 -278 -140 -47 -140 -47 0 -34 0 -34 143 -3
142 -3 0 -178 0 -178 -46 -59 c-69 -88 -150 -231 -188 -331 -29 -77 -41 -117
-62 -220 -3 -18 -17 -26 -62 -39 -31 -8 -65 -18 -74 -20 -17 -5 -18 68 -18
1432 l0 1437 33 -7 c17 -3 119 -27 225 -52z m750 -901 c3 -10 -69 -13 -339
-13 -188 0 -339 3 -335 7 8 8 332 20 525 19 106 -1 145 -4 149 -13z m-3 -58
c0 -20 -8 -20 -407 -23 -391 -2 -408 -1 -408 16 0 10 3 22 7 25 4 4 187 6 407
5 393 -3 401 -3 401 -23z m0 -705 l0 -35 -379 -3 c-209 -1 -376 1 -372 5 4 5
49 22 99 40 l92 32 280 -2 280 -2 0 -35z m5 -80 c0 -20 -7 -20 -410 -20 -403
0 -410 0 -410 20 0 20 7 20 410 20 403 0 410 0 410 -20z m-5 -495 l0 -450 -80
-3 c-44 -2 -162 0 -262 3 l-183 7 0 93 0 94 67 88 c37 48 107 138 156 198 108
132 129 176 129 260 0 58 -22 135 -38 135 -16 0 -85 -60 -196 -169 l-118 -115
0 150 c0 83 3 154 7 157 4 4 122 6 262 5 l256 -3 0 -450z m-559 -452 c-7 -7
-106 -32 -106 -26 0 6 25 49 74 128 l31 50 3 -74 c2 -40 1 -75 -2 -78z m552
-28 c8 -3 12 -33 12 -105 l0 -100 -57 0 c-32 0 -193 7 -358 15 -165 8 -306 15
-312 15 -14 0 26 123 47 144 6 6 37 18 68 28 49 14 94 16 322 11 146 -2 271
-6 278 -8z m-850 -122 c-2 -27 -6 -47 -10 -45 -5 1 -38 2 -74 2 -65 0 -65 0
-62 27 3 23 11 29 63 44 88 25 87 26 83 -28z m2271 -234 c58 -16 107 -31 108
-32 4 -5 -183 -96 -209 -101 l-28 -6 0 85 c0 57 4 85 11 85 7 0 59 -14 118
-31z m184 -49 c27 0 -13 -20 -68 -34 -83 -22 -88 -19 -25 14 30 16 61 27 68
25 8 -3 19 -5 25 -5z m-1978 -50 c88 -5 284 -17 435 -25 660 -36 994 -56 997
-59 5 -4 -166 -31 -358 -55 -544 -70 -924 -40 -1190 94 -71 36 -92 55 -62 55
10 0 90 -5 178 -10z m1814 -334 c-2 -2 -18 -7 -34 -10 l-30 -6 30 14 c26 12
46 14 34 2z m-149 -34 c0 -8 -292 -63 -330 -61 -39 1 -11 9 148 39 162 31 182
34 182 22z m-474 -88 c-22 -8 -42 -12 -45 -8 -10 9 23 24 54 23 29 0 29 -1 -9
-15z m-289 -30 c-3 -3 -12 -4 -19 -1 -8 3 -5 6 6 6 11 1 17 -2 13 -5z"/>
<path d="M2700 4145 c-280 -12 -309 -17 -330 -55 -13 -24 -13 -106 0 -130 19
-35 55 -37 365 -24 165 7 310 13 323 14 13 0 34 11 47 25 21 20 25 34 25 84 0
52 -3 62 -26 80 -30 24 -3 23 -404 6z m382 -22 c13 -12 18 -30 18 -68 0 -88 2
-87 -226 -96 -109 -4 -254 -11 -321 -14 -114 -7 -122 -6 -142 14 -29 29 -30
112 -1 141 17 17 34 20 103 21 45 1 147 5 227 9 271 13 322 12 342 -7z"/>
<path d="M2302 2563 l3 -148 128 0 c163 0 173 19 12 23 l-115 3 0 134 c0 114
-2 135 -15 135 -13 0 -15 -21 -13 -147z"/>
<path d="M2356 2701 c-5 -7 4 -11 27 -11 19 0 62 -3 96 -6 l61 -7 0 -93 c0
-77 3 -94 15 -94 12 0 15 18 15 105 l0 105 -44 0 c-23 0 -70 3 -103 6 -40 4
-63 3 -67 -5z"/>
</g>
</svg>
